<svg width="275" height="50" viewBox="0 0 275 50" fill="none" xmlns="http://www.w3.org/2000/svg">
<g filter="url(#filter0_i_2_42)">
<path d="M55.291 1.19209e-06C69.2589 1.19209e-06 47.7037 11.1929 47.7037 25C47.7037 38.8071 69.2589 50 55.291 50C41.3232 50 30 38.8071 30 25C30 11.1929 41.3232 1.19209e-06 55.291 1.19209e-06Z" fill="#B21AD8"/>
<path d="M55.291 1.19209e-06C69.2589 1.19209e-06 47.7037 11.1929 47.7037 25C47.7037 38.8071 69.2589 50 55.291 50C41.3232 50 30 38.8071 30 25C30 11.1929 41.3232 1.19209e-06 55.291 1.19209e-06Z" fill="#B21AD8"/>
</g>
<g filter="url(#filter1_i_2_42)">
<path d="M4.70897 50C-9.25889 50 12.2963 38.8071 12.2963 25C12.2963 11.1929 -9.25889 0 4.70897 0C18.6768 0 30 11.1929 30 25C30 38.8071 18.6768 50 4.70897 50Z" fill="#B21AD8"/>
<path d="M4.70897 50C-9.25889 50 12.2963 38.8071 12.2963 25C12.2963 11.1929 -9.25889 0 4.70897 0C18.6768 0 30 11.1929 30 25C30 38.8071 18.6768 50 4.70897 50Z" fill="#B21AD8"/>
</g>
<path d="M69.4464 11.8182H77.283L83.9308 28.0284H84.2376L90.8853 11.8182H98.7219V38H92.56V21.9176H92.3427L86.0529 37.8338H82.1154L75.8256 21.8281H75.6083V38H69.4464V11.8182ZM102.669 38V11.8182H108.997V22.8892H109.342L117.997 11.8182H125.45L116.169 23.5028L125.616 38H118.048L111.528 27.7088L108.997 30.9048V38H102.669ZM127.09 16.9574V11.8182H149.219V16.9574H141.28V38H135.042V16.9574H127.09ZM174.196 19.6676C174.111 18.7301 173.732 18.0014 173.058 17.4815C172.393 16.9531 171.443 16.6889 170.207 16.6889C169.389 16.6889 168.707 16.7955 168.162 17.0085C167.616 17.2216 167.207 17.5156 166.935 17.8906C166.662 18.2571 166.521 18.679 166.513 19.1562C166.496 19.5483 166.572 19.8935 166.743 20.1918C166.922 20.4901 167.178 20.7543 167.51 20.9844C167.851 21.206 168.26 21.402 168.737 21.5724C169.214 21.7429 169.751 21.892 170.348 22.0199L172.598 22.5312C173.893 22.8125 175.036 23.1875 176.024 23.6562C177.021 24.125 177.857 24.6832 178.53 25.331C179.212 25.9787 179.727 26.7244 180.077 27.5682C180.426 28.4119 180.605 29.358 180.614 30.4062C180.605 32.0597 180.188 33.4787 179.361 34.6634C178.534 35.848 177.345 36.7557 175.794 37.3864C174.251 38.017 172.389 38.3324 170.207 38.3324C168.017 38.3324 166.108 38.0043 164.48 37.348C162.852 36.6918 161.587 35.6946 160.683 34.3565C159.78 33.0185 159.315 31.3267 159.29 29.2812H165.349C165.401 30.125 165.626 30.8281 166.027 31.3906C166.428 31.9531 166.977 32.3793 167.676 32.669C168.384 32.9588 169.202 33.1037 170.131 33.1037C170.983 33.1037 171.707 32.9886 172.304 32.7585C172.909 32.5284 173.374 32.2088 173.697 31.7997C174.021 31.3906 174.188 30.9219 174.196 30.3935C174.188 29.8991 174.034 29.4773 173.736 29.1278C173.438 28.7699 172.977 28.4631 172.355 28.2074C171.741 27.9432 170.957 27.7003 170.003 27.4787L167.267 26.8395C165 26.3196 163.214 25.4801 161.911 24.321C160.607 23.1534 159.959 21.5767 159.967 19.5909C159.959 17.9716 160.393 16.5526 161.271 15.3338C162.149 14.1151 163.364 13.1648 164.915 12.483C166.466 11.8011 168.234 11.4602 170.22 11.4602C172.249 11.4602 174.009 11.8054 175.5 12.4957C177 13.1776 178.163 14.1364 178.99 15.3722C179.817 16.608 180.239 18.0398 180.256 19.6676H174.196ZM194.893 18.3636V22.9659H182.506V18.3636H194.893ZM185.101 13.6591H191.352V31.8253C191.352 32.2088 191.412 32.5199 191.531 32.7585C191.659 32.9886 191.842 33.1548 192.081 33.2571C192.32 33.3509 192.605 33.3977 192.938 33.3977C193.176 33.3977 193.428 33.3764 193.692 33.3338C193.964 33.2827 194.169 33.2401 194.305 33.206L195.251 37.7188C194.953 37.804 194.531 37.9105 193.986 38.0384C193.449 38.1662 192.805 38.2472 192.055 38.2812C190.589 38.3494 189.332 38.179 188.284 37.7699C187.244 37.3523 186.447 36.7045 185.893 35.8267C185.348 34.9489 185.084 33.8452 185.101 32.5156V13.6591ZM210.752 29.5241V18.3636H216.991V38H211.033V34.3438H210.829C210.394 35.5455 209.653 36.5 208.604 37.2074C207.565 37.9062 206.308 38.2557 204.833 38.2557C203.495 38.2557 202.319 37.9489 201.305 37.3352C200.29 36.7216 199.502 35.8651 198.94 34.7656C198.377 33.6577 198.092 32.3622 198.083 30.8793V18.3636H204.335V29.652C204.343 30.7173 204.624 31.5568 205.178 32.1705C205.732 32.7841 206.487 33.0909 207.441 33.0909C208.063 33.0909 208.621 32.9545 209.116 32.6818C209.619 32.4006 210.015 31.9957 210.305 31.4673C210.603 30.9304 210.752 30.2827 210.752 29.5241ZM228.142 38.2812C226.693 38.2812 225.376 37.9062 224.191 37.1562C223.007 36.4062 222.061 35.2812 221.353 33.7812C220.646 32.2812 220.292 30.419 220.292 28.1946C220.292 25.8849 220.659 23.9844 221.392 22.4929C222.125 21.0014 223.083 19.8977 224.268 19.1818C225.461 18.4659 226.744 18.108 228.116 18.108C229.147 18.108 230.029 18.2869 230.762 18.6449C231.495 18.9943 232.1 19.446 232.578 20C233.055 20.554 233.417 21.1293 233.664 21.7259H233.792V11.8182H240.044V38H233.856V34.8168H233.664C233.4 35.4219 233.025 35.9886 232.539 36.517C232.054 37.0455 231.444 37.4716 230.711 37.7955C229.987 38.1193 229.13 38.2812 228.142 38.2812ZM230.315 33.4105C231.074 33.4105 231.721 33.1974 232.258 32.7713C232.795 32.3366 233.208 31.7273 233.498 30.9432C233.788 30.1591 233.933 29.2386 233.933 28.1818C233.933 27.108 233.788 26.1832 233.498 25.4077C233.217 24.6321 232.804 24.0355 232.258 23.6179C231.721 23.2003 231.074 22.9915 230.315 22.9915C229.539 22.9915 228.883 23.2045 228.346 23.6307C227.809 24.0568 227.4 24.6577 227.119 25.4332C226.846 26.2088 226.71 27.125 226.71 28.1818C226.71 29.2386 226.85 30.1591 227.132 30.9432C227.413 31.7273 227.818 32.3366 228.346 32.7713C228.883 33.1974 229.539 33.4105 230.315 33.4105ZM243.997 38V18.3636H250.249V38H243.997ZM247.129 16.0753C246.251 16.0753 245.497 15.7855 244.866 15.206C244.236 14.6179 243.92 13.9105 243.92 13.0838C243.92 12.2656 244.236 11.5668 244.866 10.9872C245.497 10.3991 246.251 10.1051 247.129 10.1051C248.016 10.1051 248.77 10.3991 249.392 10.9872C250.023 11.5668 250.338 12.2656 250.338 13.0838C250.338 13.9105 250.023 14.6179 249.392 15.206C248.77 15.7855 248.016 16.0753 247.129 16.0753ZM263.394 38.3707C261.331 38.3707 259.559 37.9489 258.076 37.1051C256.601 36.2528 255.463 35.0682 254.662 33.5511C253.87 32.0256 253.473 30.2571 253.473 28.2457C253.473 26.2259 253.87 24.4574 254.662 22.9403C255.463 21.4148 256.601 20.2301 258.076 19.3864C259.559 18.5341 261.331 18.108 263.394 18.108C265.456 18.108 267.225 18.5341 268.699 19.3864C270.182 20.2301 271.32 21.4148 272.113 22.9403C272.914 24.4574 273.314 26.2259 273.314 28.2457C273.314 30.2571 272.914 32.0256 272.113 33.5511C271.32 35.0682 270.182 36.2528 268.699 37.1051C267.225 37.9489 265.456 38.3707 263.394 38.3707ZM263.432 33.6534C264.182 33.6534 264.817 33.4233 265.337 32.9631C265.857 32.5028 266.253 31.8636 266.526 31.0455C266.807 30.2273 266.948 29.2812 266.948 28.2074C266.948 27.1165 266.807 26.1619 266.526 25.3438C266.253 24.5256 265.857 23.8864 265.337 23.4261C264.817 22.9659 264.182 22.7358 263.432 22.7358C262.657 22.7358 262 22.9659 261.463 23.4261C260.935 23.8864 260.53 24.5256 260.249 25.3438C259.976 26.1619 259.84 27.1165 259.84 28.2074C259.84 29.2812 259.976 30.2273 260.249 31.0455C260.53 31.8636 260.935 32.5028 261.463 32.9631C262 33.4233 262.657 33.6534 263.432 33.6534Z" fill="white"/>
<defs>
<filter id="filter0_i_2_42" x="30" y="0" width="30" height="54" filterUnits="userSpaceOnUse" color-interpolation-filters="sRGB">
<feFlood flood-opacity="0" result="BackgroundImageFix"/>
<feBlend mode="normal" in="SourceGraphic" in2="BackgroundImageFix" result="shape"/>
<feColorMatrix in="SourceAlpha" type="matrix" values="0 0 0 0 0 0 0 0 0 0 0 0 0 0 0 0 0 0 127 0" result="hardAlpha"/>
<feOffset dy="4"/>
<feGaussianBlur stdDeviation="2"/>
<feComposite in2="hardAlpha" operator="arithmetic" k2="-1" k3="1"/>
<feColorMatrix type="matrix" values="0 0 0 0 0 0 0 0 0 0 0 0 0 0 0 0 0 0 0.25 0"/>
<feBlend mode="normal" in2="shape" result="effect1_innerShadow_2_42"/>
</filter>
<filter id="filter1_i_2_42" x="0" y="0" width="30" height="54" filterUnits="userSpaceOnUse" color-interpolation-filters="sRGB">
<feFlood flood-opacity="0" result="BackgroundImageFix"/>
<feBlend mode="normal" in="SourceGraphic" in2="BackgroundImageFix" result="shape"/>
<feColorMatrix in="SourceAlpha" type="matrix" values="0 0 0 0 0 0 0 0 0 0 0 0 0 0 0 0 0 0 127 0" result="hardAlpha"/>
<feOffset dy="4"/>
<feGaussianBlur stdDeviation="2"/>
<feComposite in2="hardAlpha" operator="arithmetic" k2="-1" k3="1"/>
<feColorMatrix type="matrix" values="0 0 0 0 0 0 0 0 0 0 0 0 0 0 0 0 0 0 0.25 0"/>
<feBlend mode="normal" in2="shape" result="effect1_innerShadow_2_42"/>
</filter>
</defs>
</svg>
